<?xml version="1.0" encoding="UTF-8"?>
<svg id="Layer_1" data-name="Layer 1" xmlns="http://www.w3.org/2000/svg" viewBox="0 0 1559.66 595.88">
  <defs>
    <style>
      .cls-1 {
        fill: #261e1e;
      }

      .cls-2 {
        fill: #df6b03;
      }

      .cls-3 {
        fill: #b7274b;
      }

      .cls-4 {
        fill: #e33220;
      }
    </style>
  </defs>
  <path class="cls-1" d="M238.21,141.93c-1.84-5.99-4.33-11.64-7.12-17.14-7.13-14.07-16.23-27.11-21.51-42.1-4.73-13.42-5.47-28.18-2.34-42.04,1.44-6.39,3.87-12.52,6.4-18.55.41-.97,3.87-10.17,5.11-10.19-26.17.36-48.29,13.19-63.21,34.52-7.41,10.6-12.96,22.76-14.27,35.62-1.27,12.48,1.47,24.96,2.89,37.42,2.14,18.69,2.72,45.79-8.94,61.84-3.13-8.12-4.22-17.35-7.14-25.69-2.82-8.07-6.26-15.93-10.4-23.4-8.03-14.47-18.78-27.4-32.09-37.29-27.41-20.36-68.93-21.93-75.58-16.06,0,0,15.6,18.69,16.97,20.37,18.34,22.46,35.71,52.97,25.62,82.87-4.05,12.01-12.46,21.97-18.83,32.93-8.97,15.41-12.94,32.62-14.49,50.44,0,0,.6,51.29.6,76.69,0,15.7.45,29.07,10.96,41.68,8.97,10.75,21.5,17.3,34.36,22.3,6.03,2.35,11.95,4.93,17.72,7.87,10.59,5.39,12.94,14.89,12.94,25.75v86.49c0,13.23,10.72,23.95,23.95,23.95h24.17c13.23,0,23.95-10.72,23.95-23.95v-86.49c0-10.86,2.35-20.36,12.94-25.75,16.01-8.14,33.65-12.84,47.17-25.29,18.62-17.15,15.87-39.65,15.87-62.58,0-30.44.63-61.54.56-92.23-.07-29.74,2.61-63.26-6.24-91.99Z"/>
  <polygon class="cls-2" points="222.76 297.14 40.21 297.14 40.21 271.33 222.76 261.38 222.76 297.14"/>
  <path class="cls-1" d="M828.55,553.13c-9.32,0-17.23-2.82-23.59-9.75v33.19h-23.45v-104.51h22.03v8.62h.42c6.07-7.63,14.83-11.3,24.43-11.3,24.29,0,38.28,19.91,38.28,42.65s-15.25,41.1-38.13,41.1ZM823.61,491.27c-11.3,0-19.63,8.9-19.63,20.06s8.47,19.91,19.63,19.91,19.63-8.9,19.63-19.91-8.33-20.06-19.63-20.06Z"/>
  <path class="cls-1" d="M934.77,550.44v-8.47h-.28c-4.24,8.05-14.41,11.16-22.88,11.16-24.15,0-39.41-18.64-39.41-41.95s15.82-41.81,39.41-41.81c8.62,0,18.22,3.25,22.88,11.02h.28v-8.33h23.44v78.38h-23.44ZM914.99,491.27c-11.44,0-19.35,9.04-19.35,20.2s8.47,19.77,19.49,19.77,19.63-8.76,19.63-20.06-8.33-19.92-19.77-19.92Z"/>
  <path class="cls-1" d="M967.54,463.73v-17.8h23.44v17.8h-23.44ZM967.54,550.44v-78.38h23.44v78.38h-23.44Z"/>
  <path class="cls-1" d="M1049.31,550.44v-42.79c0-8.76-1.69-16.24-12.29-16.24s-13.42,7.06-13.42,16.38v42.65h-23.44v-78.38h21.89v8.33h.28c4.94-8.05,11.86-11.02,21.33-11.02,6.64,0,14.97,2.54,20.06,6.78,7.49,6.21,9.04,16.1,9.04,25.28v49.01h-23.45Z"/>
  <path class="cls-1" d="M1110.33,489.85v60.59h-23.45v-60.59h-11.58v-17.79h11.58v-26.13h23.45v26.13h11.3v17.79h-11.3Z"/>
  <path class="cls-1" d="M1126.85,463.73v-17.8h23.45v17.8h-23.45ZM1126.85,550.44v-78.38h23.45v78.38h-23.45Z"/>
  <path class="cls-1" d="M1208.21,550.44v-42.79c0-8.76-1.7-16.24-12.29-16.24s-13.42,7.06-13.42,16.38v42.65h-23.45v-78.38h21.89v8.33h.28c4.94-8.05,11.86-11.02,21.33-11.02,6.64,0,14.97,2.54,20.06,6.78,7.49,6.21,9.04,16.1,9.04,25.28v49.01h-23.44Z"/>
  <path class="cls-1" d="M1316.68,566.83c-7.77,13.13-25.42,18.5-39.69,18.5-13.28,0-26.55-4.1-34.32-15.39-2.54-3.67-4.24-7.77-4.8-12.15h27.12c2.54,5.65,7.91,7.77,13.7,7.77,12.85,0,19.07-8.9,19.07-21.33v-2.4h-.28c-4.1,7.63-13.13,11.16-21.47,11.16-23.45,0-39.55-18.36-39.55-41.24s15.68-42.23,39.55-42.23c8.05,0,17.09,2.68,21.61,9.89h.28v-7.34h23.45v68.92c0,8.76-.14,18.08-4.66,25.85ZM1278.83,491.41c-10.88,0-18.93,8.9-18.93,19.49s7.49,20.2,18.79,20.2,19.21-8.19,19.21-19.49-7.49-20.2-19.07-20.2Z"/>
  <path class="cls-1" d="M1390.12,552.99c-23.45,0-41.95-18.5-41.95-41.95s18.08-41.66,41.38-41.66c20.06,0,37.43,12.99,41.52,32.91h-23.73c-3.39-7.34-9.46-11.02-17.51-11.02-11.3,0-18.08,9.32-18.08,19.92s7.2,19.91,18.64,19.91c7.77,0,13.42-3.67,16.95-10.45h23.87c-4.52,19.21-21.33,32.34-41.1,32.34Z"/>
  <path class="cls-1" d="M1476.42,552.85c-24.01,0-42.23-17.65-42.23-41.66s18.22-41.67,42.23-41.67,42.23,17.65,42.23,41.67-18.22,41.66-42.23,41.66ZM1476.42,491.41c-10.88,0-18.79,9.18-18.79,19.77s7.91,19.77,18.79,19.77,18.78-9.18,18.78-19.77-7.91-19.77-18.78-19.77Z"/>
  <path class="cls-1" d="M1524.58,550.44v-24.01h24.43v24.01h-24.43Z"/>
  <path class="cls-1" d="M457.57,442.08c-21.22,0-48.39-8.93-59.19-29.04h-.75v21.96h-59.19V159.52h61.8v85.25c16.01-17.12,36.85-23.45,59.93-23.45,14.89,0,29.78,3.72,43.56,10.05,39.83,18.61,58.07,56.21,58.07,99.02,0,62.17-39.83,111.68-104.24,111.68ZM449.38,279.02c-29.41,0-51.37,23.08-51.37,52.12s20.1,53.23,50.26,53.23,51.75-23.45,51.75-52.86-21.59-52.49-50.63-52.49Z"/>
  <path class="cls-1" d="M682.42,441.33c-63.29,0-111.31-46.53-111.31-109.82s48.02-109.82,111.31-109.82,111.31,46.53,111.31,109.82-48.02,109.82-111.31,109.82ZM682.42,279.39c-28.66,0-49.51,24.2-49.51,52.12s20.85,52.12,49.51,52.12,49.51-24.2,49.51-52.12-20.85-52.12-49.51-52.12Z"/>
  <path class="cls-1" d="M934.08,435v-112.8c0-23.08-4.47-42.81-32.39-42.81s-35.37,18.61-35.37,43.18v112.43h-61.8v-206.61h57.7v21.96h.75c13.03-21.22,31.27-29.04,56.21-29.04,17.5,0,39.46,6.7,52.86,17.87,19.73,16.38,23.82,42.44,23.82,66.64v129.18h-61.8Z"/>
  <path class="cls-1" d="M1280.66,321.46v113.54h-61.8v-206.61h58.07v21.96h.74c10.8-21.22,27.92-29.04,51.75-29.04v62.17c-27.18.74-48.77,5.96-48.77,37.97Z"/>
  <path class="cls-1" d="M1539.38,350.5h-154.86c3.72,24.57,24.2,39.09,48.4,39.09,16.75,0,27.55-6.7,37.6-19.36h63.29c-17.87,41.32-54.35,71.48-100.88,71.48-60.31,0-109.45-49.14-109.45-109.45s47.65-110.94,108.33-110.94,109.08,50.63,109.08,112.8c0,5.58-.37,10.79-1.49,16.38ZM1432.17,273.44c-22.34,0-42.07,13.03-46.91,35.37h93.81c-4.84-22.34-24.57-35.37-46.91-35.37Z"/>
  <rect class="cls-1" x="337.67" y="473.22" width="113" height="77"/>
  <rect class="cls-1" x="468.67" y="473.22" width="83" height="77"/>
  <rect class="cls-3" x="569.67" y="473.22" width="56" height="77"/>
  <rect class="cls-4" x="642.67" y="473.22" width="35" height="77"/>
  <rect class="cls-2" x="692.67" y="473.22" width="21" height="77"/>
  <g>
    <path class="cls-1" d="M1125.53,228.39h-38.46c0-23.08,4.09-27.55,26.43-27.55v-46.53h-9.31c-43.18,0-78.92,13.03-78.92,63.29v10.8h-23.08v46.91h23.08v159.7h61.8v-159.7h38.46v-46.91Z"/>
    <rect class="cls-1" x="1140.31" y="159.52" width="61.8" height="46.91"/>
    <polygon class="cls-1" points="1140.31 275.3 1140.31 275.3 1140.31 435 1202.11 435 1202.11 228.39 1140.31 228.39 1140.31 275.3"/>
  </g>
  <polygon class="cls-4" points="222.76 326.95 40.21 326.95 40.21 297.14 222.76 292.02 222.76 326.95"/>
  <polygon class="cls-3" points="222.76 356.76 40.21 356.76 40.21 326.95 222.76 322.77 222.76 356.76"/>
</svg>